<svg width="22" height="22" viewBox="0 0 22 22" fill="none" xmlns="http://www.w3.org/2000/svg">
<path d="M0.94959 4.19375C0.661699 4.27109 0.476934 4.38281 0.305059 4.58047C-0.120332 5.06172 -0.0859568 5.72344 0.429668 7.26602C1.17303 9.4875 2.48357 11.8937 3.93162 13.707C5.77928 16.023 7.73006 17.3379 9.94725 17.7719C10.4887 17.8793 11.7605 17.8793 12.1773 17.7762C12.8734 17.6 13.2558 17.2863 13.3847 16.7793C13.4019 16.7062 13.4148 16.1605 13.4105 15.5676C13.4062 14.9703 13.4148 14.416 13.432 14.3301L13.4578 14.1797L13.7027 14.3086C14.2269 14.5879 14.9445 15.2453 16.0144 16.4184C16.8137 17.2949 17.0543 17.5141 17.4453 17.6988L17.7676 17.8535H19.3359C21.1922 17.8535 21.2179 17.8492 21.6219 17.4453C21.8152 17.2477 21.8797 17.1488 21.9398 16.9512C22.2148 16.0016 21.5316 14.8672 19.1597 12.3449C18.6914 11.8465 18.3047 11.4211 18.3047 11.4082C18.3047 11.391 18.4937 11.1074 18.7301 10.7723C19.6238 9.4918 20.5734 7.92344 21.0547 6.93945C21.4801 6.07148 21.5445 5.86094 21.5488 5.37109C21.5488 4.89414 21.4715 4.70508 21.1793 4.45156C20.8355 4.15937 20.7496 4.14648 19.0137 4.14648C17.4969 4.14648 17.4625 4.14648 17.2219 4.24531C17.0801 4.30117 16.8695 4.43867 16.7363 4.56328C16.4914 4.78242 16.4656 4.82969 15.9844 5.87813C15.3484 7.25313 14.5191 8.61953 13.8101 9.46172C13.3504 10.0031 13.389 10.1578 13.4191 7.79453C13.4492 5.14766 13.4191 4.87266 13.0238 4.46875C12.6887 4.1207 12.6844 4.1207 10.2824 4.13359L8.2242 4.14648L7.97068 4.27539C7.52381 4.50312 7.2574 4.98438 7.32186 5.44844C7.35623 5.70195 7.51092 6.03711 7.72576 6.325C7.82029 6.44961 7.93631 6.63008 7.98357 6.72461C8.17264 7.10703 8.18123 7.20156 8.18553 9.03633V10.7937L8.01795 10.6047C7.8031 10.3641 7.21443 9.46602 6.89646 8.89453C6.37654 7.96641 5.86092 6.80625 5.41404 5.57305C5.12615 4.77812 4.89412 4.46875 4.39998 4.24531C4.19373 4.15078 4.15076 4.14648 2.68553 4.13789C1.46521 4.1293 1.13865 4.13789 0.94959 4.19375ZM3.91873 5.57305C3.9574 5.61602 4.04764 5.81367 4.11639 6.01562C4.76951 7.85469 5.68045 9.69805 6.5742 10.9656C6.92225 11.4641 7.59256 12.1387 7.90193 12.3063C8.39607 12.5727 9.00193 12.4824 9.28123 12.1C9.55623 11.7305 9.56053 11.6746 9.56053 9.32422C9.56053 7.40352 9.55193 7.16289 9.47889 6.85352C9.39725 6.48398 9.16951 5.95547 9.01053 5.74062C8.95467 5.66758 8.89451 5.58164 8.87732 5.55156C8.85154 5.51289 9.17811 5.5 10.4371 5.5H12.0312V7.65703C12.0355 8.84727 12.0527 10.0117 12.0699 10.248C12.1129 10.7551 12.2289 11.0687 12.448 11.2621C12.6457 11.434 12.7746 11.4812 13.0668 11.477C13.7027 11.477 14.4547 10.9184 15.2324 9.87422C15.9586 8.89883 16.6633 7.68281 17.282 6.35078C17.4668 5.94258 17.6558 5.58164 17.6945 5.55156C17.7461 5.51289 18.0683 5.5 18.9578 5.5C19.8859 5.5 20.1523 5.51289 20.1523 5.55156C20.1523 5.58164 20.0836 5.7707 20.0019 5.96836C19.7183 6.65586 18.7859 8.22422 17.7719 9.71094C17.0629 10.7508 16.9125 11.0516 16.9125 11.4254C16.9168 11.9367 17.0199 12.0914 18.1758 13.2988C18.6914 13.8359 19.4176 14.6566 19.7742 15.1078C20.1652 15.5977 20.625 16.341 20.625 16.4828C20.625 16.4914 20.0621 16.5 19.3703 16.5H18.1199L17.9351 16.3926C17.8363 16.3324 17.4797 15.9844 17.1402 15.6105C15.6406 13.9477 14.6523 13.1227 13.866 12.882C13.4406 12.7531 12.9035 12.7832 12.6199 12.9508C12.375 13.0926 12.2332 13.2945 12.1344 13.6426C12.0742 13.8531 12.057 14.1281 12.0484 15.1422C12.0355 16.2508 12.0269 16.3926 11.9625 16.427C11.9238 16.4484 11.6574 16.4785 11.3695 16.4871C9.83123 16.5559 8.28006 15.9586 6.82342 14.7426C5.42264 13.5695 4.05623 11.7734 2.92615 9.6207C2.26443 8.35312 1.55545 6.54414 1.43943 5.82227C1.42225 5.72773 1.40076 5.61602 1.38787 5.57305C1.37068 5.5043 1.44803 5.5 2.61248 5.5C3.74256 5.5 3.85857 5.50859 3.91873 5.57305Z" fill="white"/>
</svg>
