<svg width="121" height="67" viewBox="0 0 121 67" fill="none" xmlns="http://www.w3.org/2000/svg">
<path d="M19.146 37.7949V16.8976H23.2201V37.7949H19.146ZM13.9933 31.2519C11.5834 31.2519 9.71278 30.5338 8.38135 29.0978C7.06323 27.6483 6.40417 25.6081 6.40417 22.9776V16.8976H10.4783V23.1184C10.4783 24.4203 10.8045 25.427 11.4569 26.1382C12.1093 26.8497 13.0214 27.2053 14.193 27.2053C15.7774 27.2053 16.9957 26.8162 17.8479 26.0376C18.7133 25.2458 19.146 24.1386 19.146 22.7159V20.602H20.4241V22.5749C20.4241 25.3263 19.8648 27.4604 18.7465 28.977C17.6282 30.4936 16.0437 31.2519 13.9933 31.2519ZM33.5419 38.0213C31.375 38.0213 29.6973 37.4123 28.5092 36.1944C27.3208 34.9764 26.7267 33.2451 26.7267 31.0002V29.2336C26.7267 26.8983 27.2959 25.0915 28.4342 23.813C29.5826 22.5347 31.1952 21.8954 33.2723 21.8954C35.2294 21.8954 36.7423 22.6202 37.8108 24.0697C38.8893 25.5193 39.4285 27.5526 39.4285 30.1698V31.1966H28.9436V28.7203H36.5226C36.4328 27.452 36.1032 26.4604 35.534 25.7457C34.9748 25.031 34.2209 24.6737 33.2723 24.6737C32.124 24.6737 31.2303 25.0563 30.5912 25.8213C29.9521 26.5863 29.6326 27.6684 29.6326 29.0675V31.0607C29.6326 32.3591 29.9721 33.3557 30.651 34.0503C31.34 34.7448 32.3036 35.0922 33.5419 35.0922C34.161 35.0922 34.7751 34.9663 35.3843 34.7146C35.9934 34.4629 36.5376 34.1107 37.017 33.6577L39.0241 35.6809C38.2551 36.4258 37.3914 37.0046 36.4328 37.4174C35.4742 37.82 34.5106 38.0213 33.5419 38.0213ZM43.8678 44.1667V22.122H46.9235V44.1667H43.8678ZM50.833 38.0213C49.8643 38.0213 49.0205 37.7899 48.3015 37.3267C47.5825 36.8536 47.0533 36.1893 46.7139 35.3337L46.9235 32.0573C46.9235 32.7316 47.0433 33.3054 47.2829 33.7785C47.5227 34.2516 47.8671 34.6139 48.3165 34.8656C48.7758 35.1173 49.33 35.243 49.9792 35.243C50.9877 35.243 51.7665 34.936 52.3158 34.322C52.875 33.6979 53.1546 32.8223 53.1546 31.6948V28.2975C53.1546 27.15 52.875 26.2592 52.3158 25.6249C51.7665 24.9908 50.9877 24.6737 49.9792 24.6737C49.33 24.6737 48.7758 24.7945 48.3165 25.036C47.8671 25.2777 47.5227 25.6299 47.2829 26.0931C47.0433 26.5561 46.9235 27.1197 46.9235 27.7842L46.6089 24.7642C47.0782 23.8482 47.6924 23.1437 48.4513 22.6505C49.2102 22.1471 50.054 21.8954 50.9826 21.8954C52.6504 21.8954 53.9384 22.4541 54.8471 23.5715C55.7558 24.6787 56.2101 26.2491 56.2101 28.2824V31.6948C56.2101 33.6979 55.7408 35.2532 54.8023 36.3604C53.8636 37.4678 52.5404 38.0213 50.833 38.0213ZM80.509 38.0213C78.4719 38.0213 76.8942 37.4274 75.7758 36.2396C74.6574 35.0419 74.0982 33.3607 74.0982 31.1966V28.6447C74.0982 26.5007 74.6574 24.8398 75.7758 23.662C76.8942 22.4843 78.4719 21.8954 80.509 21.8954C82.5461 21.8954 84.1238 22.4843 85.2421 23.662C86.3606 24.8398 86.9198 26.5007 86.9198 28.6447V31.2418C86.9198 33.3961 86.3606 35.0669 85.2421 36.2547C84.1238 37.4326 82.5461 38.0213 80.509 38.0213ZM80.509 35.0922C81.5774 35.0922 82.4012 34.755 82.9805 34.0805C83.5696 33.406 83.8641 32.4598 83.8641 31.2418V28.6447C83.8641 27.4267 83.5696 26.4856 82.9805 25.8213C82.4012 25.157 81.5774 24.8247 80.509 24.8247C79.4505 24.8247 78.6267 25.157 78.0375 25.8213C77.4484 26.4856 77.1537 27.4267 77.1537 28.6447V31.2418C77.1537 32.4598 77.4484 33.406 78.0375 34.0805C78.6267 34.755 79.4505 35.0922 80.509 35.0922Z" fill="white"/>
<path d="M102.08 42.7005L98.9848 36.6944L108.371 21.8636H116.56L102.08 42.7005ZM88.8328 56.6923V21.8636H95.6231V56.6923H88.8328ZM109.503 56.6923L99.2844 41.9958L104.577 38.4726L118.59 56.6923H109.503ZM92.1281 42.4991V35.9897H104.61V42.4991H92.1281Z" fill="#42641F"/>
<path d="M13.8416 56.6923V41.0195H16.8972V56.6923H13.8416ZM4.01562 56.6923V41.0195H7.07125V56.6923H4.01562ZM5.9179 50.3809V47.6026H15.4592V50.3809H5.9179ZM33.2549 56.6772H30.2292V45.5492L30.5888 45.9417L23.1144 56.6772H20.4633V41.0195H23.4889V52.4041L23.1294 52.0116L30.6336 41.0195H33.2549V56.6772ZM52.4136 56.6923L48.2647 49.9279L50.4964 48.3424L56.3531 56.6923H52.4136ZM34.4245 56.6923L40.2811 48.3424L42.513 49.9279L38.3638 56.6923H34.4245ZM41.4045 50.245L35.3382 41.0195H38.8731L42.6478 47.5422L41.4045 50.245ZM43.861 56.6923V41.0195H46.9165V56.6923H43.861ZM40.2661 50.0789V47.3006H50.5114V50.0789H40.2661ZM49.373 50.245L48.1299 47.5422L51.9044 41.0195H55.4393L49.373 50.245ZM86.762 56.6772H83.7363V45.5492L84.0957 45.9417L76.6215 56.6772H73.9702V41.0195H76.9959V52.4041L76.6363 52.0116L84.1407 41.0195H86.762V56.6772Z" fill="white"/>
<path d="M61.3521 22.3333H57.9437V56.6923H61.3521V22.3333Z" fill="#42641F"/>
<path d="M71.5775 22.3333H68.169V56.6923H71.5775V22.3333Z" fill="#42641F"/>
<path d="M59.6479 29.2051V32.2974H69.8732V29.2051H59.6479Z" fill="#42641F"/>
<line x1="59" y1="44.5" x2="70" y2="44.5" stroke="#42641F" stroke-width="3"/>
</svg>
