<svg width="22" height="22" viewBox="0 0 22 22" fill="none" xmlns="http://www.w3.org/2000/svg">
<path d="M19.6582 1.71446C19.2328 1.85626 14.923 3.27853 10.0762 4.87696C5.2336 6.4711 1.13008 7.82462 0.958207 7.88907C0.571488 8.02657 0.305082 8.2586 0.141801 8.58517C-0.0214807 8.91603 -0.0257775 9.41446 0.124613 9.71095C0.249222 9.95587 0.489847 10.2094 0.696097 10.3168C0.782035 10.3598 1.91211 10.8625 3.20547 11.4297C4.49883 11.9969 5.56016 12.4652 5.56875 12.4738C5.57735 12.4824 5.9125 14.0121 6.31211 15.8727C6.71602 17.7332 7.07696 19.3274 7.11993 19.4133C7.28321 19.7484 7.67422 19.8602 8.01367 19.6668C8.10821 19.6109 9.00196 18.9535 9.99883 18.2059L11.8121 16.8481L13.909 18.5625C15.0605 19.5078 16.1004 20.3285 16.2164 20.393C16.4914 20.5434 16.8695 20.5777 17.209 20.4746C17.557 20.3758 17.9523 19.9848 18.0598 19.6367C18.0984 19.5078 19.0051 15.6879 20.0707 11.1504C22.1977 2.09689 22.0859 2.65548 21.8582 2.2086C21.6262 1.75743 21.2395 1.50392 20.7324 1.47384C20.4574 1.46095 20.3672 1.47814 19.6582 1.71446ZM20.6895 2.86603C20.6723 2.93478 19.8 6.63868 18.7516 11.1031C17.7031 15.5676 16.8352 19.2328 16.8223 19.2414C16.8094 19.2543 16.7664 19.2328 16.7277 19.1984C16.6848 19.1641 15.2023 17.9481 13.4277 16.5C11.6574 15.052 10.1879 13.8531 10.1707 13.8359C10.1535 13.8188 11.6488 12.2246 13.5008 10.291C15.3527 8.35743 16.9082 6.70743 16.9598 6.6215C17.0242 6.51837 17.0586 6.39806 17.0586 6.26915C17.0586 6.09728 17.0328 6.04142 16.8953 5.88673C16.7406 5.71056 16.7148 5.69767 16.4742 5.68478L16.2207 5.66759L11.1633 8.47775L6.11016 11.2879L3.69532 10.2352C2.37188 9.65509 1.30196 9.16525 1.32344 9.14376C1.35782 9.10939 20.5648 2.7586 20.6637 2.75431C20.7066 2.75001 20.7109 2.78009 20.6895 2.86603ZM12.9336 8.99767C12.9336 9.00626 11.9754 10.0203 10.8023 11.2449C9.6293 12.4695 8.64102 13.5266 8.61094 13.5996C8.58086 13.6684 8.38321 14.3172 8.18125 15.0391C7.975 15.7609 7.79453 16.3625 7.77735 16.384C7.75157 16.4141 6.90938 12.5899 6.90078 12.4051C6.89649 12.3492 7.62696 11.9238 9.9043 10.6563C11.5586 9.73673 12.9164 8.98048 12.925 8.98048C12.9293 8.98048 12.9336 8.98907 12.9336 8.99767ZM10.218 15.5461C10.5102 15.7824 10.7465 15.9887 10.7465 16.0059C10.7465 16.0488 8.87305 17.4453 8.86016 17.4109C8.85586 17.3938 8.96758 16.9727 9.10938 16.4785C9.57344 14.8715 9.53477 14.9789 9.61641 15.052C9.65508 15.0863 9.92578 15.3055 10.218 15.5461Z" fill="white"/>
</svg>
