<svg width="26" height="24" viewBox="0 0 26 24" fill="none" xmlns="http://www.w3.org/2000/svg">
<path fill-rule="evenodd" clip-rule="evenodd" d="M5.39548 9C5.39548 5.13 8.77305 2 12.9492 2C17.1253 2 20.5028 5.13 20.5028 9C20.5028 13.17 15.7332 18.92 13.7801 21.11C13.3484 21.59 12.5607 21.59 12.129 21.11C10.1651 18.92 5.39548 13.17 5.39548 9ZM10.2514 9C10.2514 10.38 11.46 11.5 12.9491 11.5C14.4383 11.5 15.6469 10.38 15.6469 9C15.6469 7.62 14.4383 6.5 12.9491 6.5C11.46 6.5 10.2514 7.62 10.2514 9Z" fill="white"/>
</svg>
