<svg width="36" height="36" viewBox="0 0 36 36" fill="none" xmlns="http://www.w3.org/2000/svg">
<path d="M15.461 10.83C16.4241 8.42901 16.9057 7.2285 17.688 7.06211C17.8937 7.01836 18.1064 7.01836 18.3121 7.06211C19.0944 7.2285 19.576 8.42901 20.5391 10.83C21.0868 12.1955 21.3607 12.8782 21.8731 13.3425C22.0168 13.4728 22.1728 13.5888 22.339 13.6889C22.9312 14.0459 23.6705 14.1121 25.1492 14.2445C27.6524 14.4687 28.9039 14.5808 29.2861 15.2944C29.3653 15.4422 29.4191 15.6022 29.4454 15.7678C29.5721 16.5673 28.652 17.4044 26.8118 19.0786L26.3008 19.5435C25.4405 20.3262 25.0103 20.7176 24.7615 21.206C24.6122 21.499 24.5122 21.8145 24.4653 22.1399C24.3871 22.6824 24.5131 23.2502 24.765 24.3857L24.855 24.7914C25.3068 26.8276 25.5327 27.8458 25.2507 28.3463C24.9974 28.7958 24.5309 29.0836 24.0155 29.1082C23.4417 29.1356 22.6332 28.4768 21.0162 27.1592C19.9509 26.2911 19.4183 25.8571 18.8269 25.6875C18.2866 25.5326 17.7135 25.5326 17.1732 25.6875C16.5818 25.8571 16.0492 26.2911 14.9839 27.1592C13.3669 28.4768 12.5584 29.1356 11.9846 29.1082C11.4692 29.0836 11.0027 28.7958 10.7494 28.3463C10.4674 27.8458 10.6933 26.8277 11.1451 24.7914L11.2351 24.3857C11.487 23.2502 11.613 22.6824 11.5348 22.1399C11.4879 21.8145 11.3879 21.499 11.2386 21.206C10.9898 20.7176 10.5596 20.3262 9.69932 19.5435L9.18831 19.0786C7.34813 17.4044 6.42803 16.5673 6.55474 15.7678C6.58099 15.6022 6.63481 15.4422 6.71396 15.2944C7.09616 14.5808 8.34773 14.4687 10.8509 14.2445C12.3296 14.1121 13.0689 14.0459 13.6611 13.6889C13.8273 13.5888 13.9833 13.4728 14.127 13.3425C14.6394 12.8782 14.9133 12.1955 15.461 10.83Z" fill="#87B553" stroke="#87B553" stroke-width="2"/>
</svg>
