<svg width="22" height="22" viewBox="0 0 22 22" fill="none" xmlns="http://www.w3.org/2000/svg">
<g clip-path="url(#clip0_7_74)">
<path d="M10.5703 0.0257683C10.4887 0.0343609 10.2352 0.0644398 10.0117 0.0902214C8.46056 0.266394 6.84493 0.859362 5.49142 1.74882C2.87462 3.46757 1.15587 6.21327 0.751965 9.31991C0.670324 9.93436 0.661731 11.2062 0.726184 11.7949C0.863684 12.9894 1.18165 14.141 1.65861 15.1637L1.84767 15.5676L0.936731 18.15C0.124621 20.4617 0.0300899 20.7625 0.0257931 21.016C0.0214962 21.2566 0.0386837 21.3254 0.150402 21.5101C0.322277 21.7808 0.614465 21.9656 0.915246 21.9914C1.1172 22.0043 1.38361 21.9226 3.78556 21.0805L6.43243 20.1523L6.80626 20.3285C10.6863 22.1461 15.3055 21.45 18.4895 18.5711C20.0277 17.1789 21.1363 15.3484 21.6563 13.3375C22.4168 10.4027 21.8797 7.25311 20.2039 4.75233C18.4938 2.20428 15.907 0.575768 12.8262 0.103111C12.418 0.0429554 10.8883 -0.0129032 10.5703 0.0257683ZM12.1817 1.33202C14.0164 1.4996 15.7094 2.1828 17.1746 3.33866C17.5785 3.65663 18.3434 4.42147 18.6699 4.83397C21.4156 8.29296 21.3813 13.1613 18.584 16.6074C17.0887 18.4508 14.8414 19.684 12.4395 19.9805C11.9453 20.0406 10.7981 20.0406 10.2738 19.9805C9.19962 19.8558 8.27149 19.5851 7.1629 19.0695C6.78478 18.8933 6.63868 18.8461 6.46681 18.8461C6.29923 18.8461 5.73204 19.0308 3.89298 19.6711C2.59532 20.1266 1.5297 20.4918 1.51681 20.4832C1.50821 20.4703 1.87345 19.4047 2.32892 18.107C2.96915 16.268 3.15392 15.7008 3.15392 15.5332C3.15392 15.3613 3.10665 15.2152 2.93048 14.8371C2.23868 13.3547 1.97228 12.1816 1.97228 10.6348C1.97228 9.54764 2.09689 8.74413 2.43634 7.72577C3.79845 3.59217 7.8547 0.932409 12.1817 1.33202Z" fill="white"/>
<path d="M7.56253 4.98866C7.36057 5.066 7.21448 5.1949 6.56995 5.83944C6.15315 6.25623 5.77503 6.67303 5.72346 6.76756C5.40979 7.39061 5.40979 8.17694 5.71917 9.12655C6.00276 9.98162 6.60432 11.0301 7.41643 12.0742C7.90628 12.7101 9.28987 14.0937 9.92581 14.5836C11.2535 15.6105 12.5254 16.2722 13.5438 16.457C13.909 16.5258 14.5364 16.5172 14.8157 16.4398C15.2024 16.3324 15.4258 16.1648 16.1821 15.4086C16.8395 14.7512 16.9297 14.648 17.0157 14.416C17.136 14.0894 17.1188 13.6941 16.9727 13.4062C16.8395 13.1398 15.2711 11.5629 14.9875 11.4082C14.6996 11.2492 14.3215 11.2191 14.0035 11.3222C13.8231 11.3824 13.6942 11.4769 13.3805 11.782L12.9852 12.1644L12.5899 11.9238C11.5758 11.2965 10.7035 10.4242 10.0762 9.41014L9.83557 9.01483L10.218 8.61951C10.5231 8.30584 10.6176 8.17694 10.6778 7.99647C10.7809 7.6785 10.7508 7.30037 10.5918 7.01248C10.4371 6.72889 8.86018 5.16053 8.59378 5.02733C8.31448 4.88553 7.8719 4.86834 7.56253 4.98866ZM9.41018 7.57967C9.41018 7.60115 9.23831 7.79881 9.02346 8.01365C8.58948 8.45623 8.49495 8.6324 8.49925 8.98905C8.49925 9.19959 8.52932 9.28983 8.7055 9.61209C9.54339 11.1633 10.8367 12.4566 12.3879 13.2945C12.7102 13.4707 12.8004 13.5008 13.011 13.5008C13.3676 13.5051 13.5438 13.4105 13.9864 12.9765C14.2012 12.7617 14.3989 12.5898 14.4203 12.5898C14.4418 12.5898 14.7641 12.8949 15.1379 13.2687L15.8125 13.9433L15.2024 14.5535C14.4719 15.2797 14.4246 15.3012 13.8274 15.198C12.6328 14.9918 10.9914 13.9562 9.51761 12.4824C8.04378 11.0086 7.00823 9.36717 6.80198 8.17264C6.69886 7.57537 6.72034 7.52811 7.44651 6.79764L8.05667 6.18748L8.73128 6.86209C9.10511 7.23592 9.41018 7.55819 9.41018 7.57967Z" fill="white"/>
</g>
<defs>
<clipPath id="clip0_7_74">
<rect width="22" height="22" fill="white"/>
</clipPath>
</defs>
</svg>
