<svg width="25" height="24" viewBox="0 0 25 24" fill="none" xmlns="http://www.w3.org/2000/svg">
<path fill-rule="evenodd" clip-rule="evenodd" d="M7.49319 3H17.5895C18.1448 3 18.5991 3.45 18.5991 4V6C18.5991 6.55 18.1448 7 17.5895 7H7.49319C6.93789 7 6.48356 6.55 6.48356 6V4C6.48356 3.45 6.93789 3 7.49319 3ZM5.47393 8H19.6087C21.2847 8 22.6376 9.34 22.6376 11V15C22.6376 16.1 21.729 17 20.6184 17H18.5991V19C18.5991 20.1 17.6904 21 16.5799 21H8.50282C7.39222 21 6.48356 20.1 6.48356 19V17H4.4643C3.3537 17 2.44504 16.1 2.44504 15V11C2.44504 9.34 3.79794 8 5.47393 8ZM9.51245 19H15.5702C16.1255 19 16.5799 18.55 16.5799 18V14H8.50282V18C8.50282 18.55 8.95715 19 9.51245 19ZM19.6087 12C19.0534 12 18.5991 11.55 18.5991 11C18.5991 10.45 19.0534 10 19.6087 10C20.164 10 20.6184 10.45 20.6184 11C20.6184 11.55 20.164 12 19.6087 12Z" fill="white"/>
</svg>
