<svg width="25" height="24" viewBox="0 0 25 24" fill="none" xmlns="http://www.w3.org/2000/svg">
<path fill-rule="evenodd" clip-rule="evenodd" d="M19.4913 15.2598L16.9269 14.9698C16.311 14.8998 15.7052 15.1098 15.2711 15.5398L13.4134 17.3798C10.5561 15.9398 8.21378 13.6298 6.75992 10.7898L8.62773 8.93977C9.06187 8.50977 9.27389 7.90977 9.20322 7.29977L8.91043 4.77977C8.78927 3.76977 7.93109 3.00977 6.90126 3.00977H5.15461C4.01372 3.00977 3.06467 3.94977 3.13535 5.07977C3.67045 13.6198 10.5662 20.4398 19.1784 20.9698C20.3192 21.0398 21.2683 20.0998 21.2683 18.9698V17.2398C21.2784 16.2298 20.5111 15.3798 19.4913 15.2598Z" fill="white"/>
</svg>
